<mxfile host="app.diagrams.net" modified="2022-06-05T08:37:59.514Z" agent="5.0 (Windows NT 10.0; Win64; x64) AppleWebKit/537.36 (KHTML, like Gecko) Chrome/102.0.5005.63 Safari/537.36" etag="tS__6cqgX_HOMrH0Iwku" version="19.0.0" type="github">
  <diagram id="un7-8XMSMEBVLL76KGjw" name="Page-1">
    <mxGraphModel dx="878" dy="492" grid="1" gridSize="10" guides="1" tooltips="1" connect="1" arrows="1" fold="1" page="1" pageScale="1" pageWidth="827" pageHeight="1169" math="0" shadow="0">
      <root>
        <mxCell id="0" />
        <mxCell id="1" parent="0" />
        <mxCell id="ubk4MQQK-aXw9F3-TNdF-3" style="edgeStyle=orthogonalEdgeStyle;rounded=0;orthogonalLoop=1;jettySize=auto;html=1;entryX=0;entryY=0.5;entryDx=0;entryDy=0;" edge="1" parent="1" source="ubk4MQQK-aXw9F3-TNdF-1" target="ubk4MQQK-aXw9F3-TNdF-2">
          <mxGeometry relative="1" as="geometry" />
        </mxCell>
        <mxCell id="ubk4MQQK-aXw9F3-TNdF-4" value="put&lt;br&gt;创建" style="edgeLabel;html=1;align=center;verticalAlign=middle;resizable=0;points=[];" vertex="1" connectable="0" parent="ubk4MQQK-aXw9F3-TNdF-3">
          <mxGeometry x="-0.1992" y="1" relative="1" as="geometry">
            <mxPoint as="offset" />
          </mxGeometry>
        </mxCell>
        <mxCell id="ubk4MQQK-aXw9F3-TNdF-1" value="初始节点" style="rounded=1;whiteSpace=wrap;html=1;" vertex="1" parent="1">
          <mxGeometry x="190" y="200" width="120" height="60" as="geometry" />
        </mxCell>
        <mxCell id="ubk4MQQK-aXw9F3-TNdF-6" style="edgeStyle=orthogonalEdgeStyle;rounded=0;orthogonalLoop=1;jettySize=auto;html=1;entryX=0;entryY=0.5;entryDx=0;entryDy=0;" edge="1" parent="1" source="ubk4MQQK-aXw9F3-TNdF-2" target="ubk4MQQK-aXw9F3-TNdF-5">
          <mxGeometry relative="1" as="geometry" />
        </mxCell>
        <mxCell id="ubk4MQQK-aXw9F3-TNdF-7" value="deal&lt;br&gt;创建" style="edgeLabel;html=1;align=center;verticalAlign=middle;resizable=0;points=[];" vertex="1" connectable="0" parent="ubk4MQQK-aXw9F3-TNdF-6">
          <mxGeometry x="-0.1515" relative="1" as="geometry">
            <mxPoint as="offset" />
          </mxGeometry>
        </mxCell>
        <mxCell id="ubk4MQQK-aXw9F3-TNdF-2" value="等待节点" style="rounded=1;whiteSpace=wrap;html=1;" vertex="1" parent="1">
          <mxGeometry x="414" y="200" width="120" height="60" as="geometry" />
        </mxCell>
        <mxCell id="ubk4MQQK-aXw9F3-TNdF-5" value="处理节点" style="rounded=1;whiteSpace=wrap;html=1;" vertex="1" parent="1">
          <mxGeometry x="630" y="200" width="120" height="60" as="geometry" />
        </mxCell>
        <mxCell id="ubk4MQQK-aXw9F3-TNdF-8" value="" style="endArrow=classic;html=1;rounded=0;" edge="1" parent="1">
          <mxGeometry width="50" height="50" relative="1" as="geometry">
            <mxPoint x="110" y="230" as="sourcePoint" />
            <mxPoint x="190" y="230" as="targetPoint" />
          </mxGeometry>
        </mxCell>
        <mxCell id="ubk4MQQK-aXw9F3-TNdF-9" value="order&lt;br&gt;创建" style="edgeLabel;html=1;align=center;verticalAlign=middle;resizable=0;points=[];" vertex="1" connectable="0" parent="ubk4MQQK-aXw9F3-TNdF-8">
          <mxGeometry x="0.384" y="1" relative="1" as="geometry">
            <mxPoint x="-15" y="1" as="offset" />
          </mxGeometry>
        </mxCell>
        <mxCell id="ubk4MQQK-aXw9F3-TNdF-10" value="" style="endArrow=classic;html=1;rounded=0;entryX=0.542;entryY=-0.003;entryDx=0;entryDy=0;entryPerimeter=0;" edge="1" parent="1" target="ubk4MQQK-aXw9F3-TNdF-2">
          <mxGeometry width="50" height="50" relative="1" as="geometry">
            <mxPoint x="479" y="130" as="sourcePoint" />
            <mxPoint x="600" y="120" as="targetPoint" />
          </mxGeometry>
        </mxCell>
        <mxCell id="ubk4MQQK-aXw9F3-TNdF-11" value="deal&lt;br&gt;销毁" style="edgeLabel;html=1;align=center;verticalAlign=middle;resizable=0;points=[];" vertex="1" connectable="0" parent="ubk4MQQK-aXw9F3-TNdF-10">
          <mxGeometry x="-0.2262" y="1" relative="1" as="geometry">
            <mxPoint as="offset" />
          </mxGeometry>
        </mxCell>
      </root>
    </mxGraphModel>
  </diagram>
</mxfile>
